<?xml version="1.0" encoding="UTF-8" standalone="no"?>
<!-- Created with Inkscape (http://www.inkscape.org/) -->

<svg
   version="1.1"
   id="svg2"
   width="512"
   height="416"
   viewBox="0 0 512 416"
   sodipodi:docname="WaterCrossing2.svg"
   inkscape:version="1.2.2 (732a01da63, 2022-12-09)"
   xmlns:inkscape="http://www.inkscape.org/namespaces/inkscape"
   xmlns:sodipodi="http://sodipodi.sourceforge.net/DTD/sodipodi-0.dtd"
   xmlns:xlink="http://www.w3.org/1999/xlink"
   xmlns="http://www.w3.org/2000/svg"
   xmlns:svg="http://www.w3.org/2000/svg">
  <defs
     id="defs6" />
  <sodipodi:namedview
     id="namedview4"
     pagecolor="#505050"
     bordercolor="#eeeeee"
     borderopacity="1"
     inkscape:showpageshadow="0"
     inkscape:pageopacity="0"
     inkscape:pagecheckerboard="0"
     inkscape:deskcolor="#505050"
     showgrid="false"
     inkscape:zoom="4.9375001"
     inkscape:cx="278.48101"
     inkscape:cy="89.721517"
     inkscape:window-width="2560"
     inkscape:window-height="1334"
     inkscape:window-x="-11"
     inkscape:window-y="-11"
     inkscape:window-maximized="1"
     inkscape:current-layer="g8" />
  <g
     inkscape:groupmode="layer"
     inkscape:label="Image"
     id="g8">
    <image
       width="512"
       height="416"
       preserveAspectRatio="none"
       xlink:href="WaterCrossing.png"
       id="image10" />
    <path
       style="fill:#000000"
       d="m -0.10126582,112.40506 67.64556982,-0.20253 65.316456,63.89874 10.93671,0.10126 0.81013,14.07595 -50.227853,0.91139 -33.012658,-33.31645 -29.468355,0.40506 0.303798,145.62025 h 32 v 16.3038 L 0,319.79747 Z"
       id="path122" />
    <path
       style="fill:#000000"
       d="M 0.10126582,367.79747 60.050633,368.10127 91.64557,336 l 36.65823,0.3038 v 63.89873 L 415.6962,400 v -51.34177 l 12.4557,-12.35443 19.74683,-0.10127 0.20254,31.6962 L 511.59494,368 512,417.01266 -0.91139241,417.41772 Z"
       id="path124" />
    <path
       style="fill:#000000"
       d="M 192,336.50633 319.79747,336 l -10.83544,14.27848 -105.31646,0.10127 z"
       id="path126" />
    <path
       style="fill:#000000"
       d="m 96.101266,272 28.455694,0.3038 63.79747,-64.50633 35.24051,0.3038 0.30379,-82.32912 -33.11392,1.31646 L 176.50633,113.41772 176,92.455696 220.35443,48.202532 h 71.08861 l 65.31645,63.696198 h 10.43038 l 1.01266,14.78481 -79.3924,0.50633 -0.70886,80.81013 35.74683,-0.10127 64.40506,64 27.64557,0.20254 0.3038,14.98734 -66.22785,0.20253 -34.22784,-33.41772 -120.50633,0.20253 -30.48102,32 -68.556958,1.01266 z"
       id="path128" />
    <path
       style="fill:#000000"
       d="m 444.05063,112.20253 68.35443,-0.10126 0.3038,208 -32.40506,-0.20254 -0.3038,-24.30379 -31.6962,-0.20253 -0.10127,-7.29114 31.59494,-0.40507 -0.20253,-129.72152 -33.01266,-0.10126 -25.11393,32.20253 -53.06329,0.3038 L 368,175.6962 381.56962,176 Z"
       id="path236" />
    <path
       style="fill:#000000"
       d="M -0.03580287,64.301963 0.1432115,-0.42963449 512.26753,-0.57284599 l 0.0716,64.73159699 -64.37356,0.143216 0.0358,-16.755745 31.57813,0.250615 0.10741,-31.470726 -447.392717,-0.07161 0.214817,31.25591 31.506529,0.322226 0.286423,16.469322 z"
       id="path225"
       sodipodi:nodetypes="ccccccccccccc" />
  </g>
</svg>
